<?xml version="1.0" encoding="iso-8859-1"?>
<!-- Generator: Adobe Illustrator 19.0.0, SVG Export Plug-In . SVG Version: 6.00 Build 0)  -->
<svg version="1.1" id="Capa_1" xmlns="http://www.w3.org/2000/svg" xmlns:xlink="http://www.w3.org/1999/xlink" x="0px" y="0px"
	 viewBox="0 0 512 512" style="enable-background:new 0 0 512 512;" xml:space="preserve">
<g>
	<g>
		<path d="M508.676,306.576C379.757,146.76,387.194,155.846,385.765,154.619c-0.043-0.037-0.08-0.08-0.124-0.117l-180-151
			c-4.49-3.768-10.828-4.583-16.153-2.01c-0.064,0.031-0.132,0.053-0.196,0.085l-120,60c-2.888,1.444-5.233,3.781-6.686,6.664
			l-61,121c-0.023,0.046-0.038,0.095-0.061,0.141c-0.96,1.954-1.456,4.077-1.528,6.068c-0.006,0.156-0.012,0.312-0.013,0.469
			c0,0.025-0.004,0.05-0.004,0.075v210c0,4.714,2.216,9.154,5.984,11.988l120.808,90.855c0.011,0.009,0.023,0.017,0.034,0.026
			l0.158,0.119c2.501,1.89,5.786,3.016,9.021,3.016c0.028,0,0.055-0.004,0.083-0.004h209.891c0.004,0,0.008,0,0.012,0
			c0.003,0,0.006,0,0.009,0c2.72,0,5.47-0.783,7.741-2.152h0.001l151-91c4.504-2.714,7.258-7.589,7.258-12.847v-90
			C512.001,312.567,510.827,309.243,508.676,306.576z M30.001,398.506V273.524l72.014,179.142L30.001,398.506z M146.138,481.994
			L146.138,481.994L53.329,251.123L307.21,481.994H146.138z M33.527,192.566l53.63-106.379l99.766-49.883l128.368,412.488
			L33.527,192.566z M337.88,420.418L225.506,59.325l134.849,113.123L337.88,420.418z M482.001,397.52l-118.39,71.347l2.892-31.913
			l21.091-232.698l94.407,117.034V397.52z"/>
	</g>
</g>
<g>
</g>
<g>
</g>
<g>
</g>
<g>
</g>
<g>
</g>
<g>
</g>
<g>
</g>
<g>
</g>
<g>
</g>
<g>
</g>
<g>
</g>
<g>
</g>
<g>
</g>
<g>
</g>
<g>
</g>
</svg>
